# xmcd
#
# Track frame offsets:
#   150
#   17076
#   31353
#   45601
#   61783
#   78048
#   94801
#   112416
#   127793
#   143203
#   157672
#   171713
#   187935
#   205433
#   219327
#   234180
#   250402
#   263302
#   278568
#   294744
#
# Disc length: 4126 seconds
#
# Revision: 0
# Processed by: cddbd v1.5.1PL0 Copyright (c) Steve Scherf et al.
# Submitted via: uFREEDB ActiveX Control 1.5
#
DISCID=10101c14
DTITLE=CHICO REY and PARANA - AS MELHORES
DYEAR=2005
DGENRE=Country
TTITLE0=UM DEGRAU NA ESCADA
TTITLE1=ALMA TRANSPARENTE
TTITLE2=AMOR REBELDE
TTITLE3=CASAL NOTA MIL
TTITLE4=ENCANTO E MAGIA
TTITLE5=SANGUE BOM
TTITLE6=DE CA PRA LA
TTITLE7=CANARINHO PRISIONEIRO
TTITLE8=TRANQUE A PORTA E ME BEIJA
TTITLE9=LEAO DOMADO
TTITLE10=LIGUEI PRA DIZER QUE TE AMO
TTITLE11=EM ALGUM LUGAR DO PASSADO
TTITLE12=QUEM SERA SEU OUTRO AMOR
TTITLE13=SÓ VOCE
TTITLE14=CEU DA BOCA
TTITLE15=EM FRENTE AO PORTAO
TTITLE16=TA COM RAIVA DE MIM
TTITLE17=TELEFONE MAIS
TTITLE18=BOMBA RELOGIO
TTITLE19=BLUSA VERMELHA
EXTD=
EXTT0=
EXTT1=
EXTT2=
EXTT3=
EXTT4=
EXTT5=
EXTT6=
EXTT7=
EXTT8=
EXTT9=
EXTT10=
EXTT11=
EXTT12=
EXTT13=
EXTT14=
EXTT15=
EXTT16=
EXTT17=
EXTT18=
EXTT19=
PLAYORDER=
